<svg xmlns="http://www.w3.org/2000/svg" xmlns:xlink="http://www.w3.org/1999/xlink" version="1.1" data-diagram-type="SEQUENCE" style="width:1497px;height:1323px;background:#FFFFFF;" width="1497px" height="1323px" viewBox="0 0 1497 1323" zoomAndPan="magnify" preserveAspectRatio="none" contentStyleType="text/css"><?plantuml 1.2026.7beta8?><defs/><g font-family="sans-serif" lengthAdjust="spacing"><g><title>Patient</title><rect x="34.188" y="86.297" width="8" height="1150.32" fill="#000" fill-opacity="0"/><line x1="37.688" y1="86.297" x2="37.688" y2="1236.617" style="stroke:#181818;stroke-width:0.5;stroke-dasharray:5,5;"/></g><g><title>Frontend</title><rect x="258.867" y="86.297" width="8" height="1150.32" fill="#000" fill-opacity="0"/><line x1="262.367" y1="86.297" x2="262.367" y2="1236.617" style="stroke:#181818;stroke-width:0.5;stroke-dasharray:5,5;"/></g><g><title></title><rect x="257.367" y="130.563" width="10" height="1068.055" fill="#FFF" style="stroke:#181818;stroke-width:1;"/></g><g><title>Backend API</title><rect x="481.418" y="86.297" width="8" height="1150.32" fill="#000" fill-opacity="0"/><line x1="484.918" y1="86.297" x2="484.918" y2="1236.617" style="stroke:#181818;stroke-width:0.5;stroke-dasharray:5,5;"/></g><g><title></title><rect x="479.918" y="159.695" width="10" height="994.656" fill="#FFF" style="stroke:#181818;stroke-width:1;"/></g><g><title>Preprocessing</title><rect x="651.34" y="86.297" width="8" height="1150.32" fill="#000" fill-opacity="0"/><line x1="654.84" y1="86.297" x2="654.84" y2="1236.617" style="stroke:#181818;stroke-width:0.5;stroke-dasharray:5,5;"/></g><g><title></title><rect x="649.84" y="203.961" width="10" height="44.266" fill="#FFF" style="stroke:#181818;stroke-width:1;"/></g><g><title>Feature Extraction</title><rect x="789.572" y="86.297" width="8" height="1150.32" fill="#000" fill-opacity="0"/><line x1="793.072" y1="86.297" x2="793.072" y2="1236.617" style="stroke:#181818;stroke-width:0.5;stroke-dasharray:5,5;"/></g><g><title></title><rect x="788.072" y="277.359" width="10" height="44.266" fill="#FFF" style="stroke:#181818;stroke-width:1;"/></g><g><title>P6 Coarse</title><rect x="913.712" y="86.297" width="8" height="1150.32" fill="#000" fill-opacity="0"/><line x1="917.212" y1="86.297" x2="917.212" y2="1236.617" style="stroke:#181818;stroke-width:0.5;stroke-dasharray:5,5;"/></g><g><title></title><rect x="912.212" y="365.891" width="10" height="29.133" fill="#FFF" style="stroke:#181818;stroke-width:1;"/></g><g><title>P6 Fine</title><rect x="998.518" y="86.297" width="8" height="1150.32" fill="#000" fill-opacity="0"/><line x1="1002.018" y1="86.297" x2="1002.018" y2="1236.617" style="stroke:#181818;stroke-width:0.5;stroke-dasharray:5,5;"/></g><g><title></title><rect x="997.018" y="551.492" width="10" height="29.133" fill="#FFF" style="stroke:#181818;stroke-width:1;"/></g><g><title>P6 SA-Branch</title><rect x="1095.481" y="86.297" width="8" height="1150.32" fill="#000" fill-opacity="0"/><line x1="1098.981" y1="86.297" x2="1098.981" y2="1236.617" style="stroke:#181818;stroke-width:0.5;stroke-dasharray:5,5;"/></g><g><title></title><rect x="1093.981" y="656.023" width="10" height="29.133" fill="#FFF" style="stroke:#181818;stroke-width:1;"/></g><g><title>Word Assembler</title><rect x="1224.361" y="86.297" width="8" height="1150.32" fill="#000" fill-opacity="0"/><line x1="1227.861" y1="86.297" x2="1227.861" y2="1236.617" style="stroke:#181818;stroke-width:0.5;stroke-dasharray:5,5;"/></g><g><title></title><rect x="1222.861" y="888.758" width="10" height="44.266" fill="#FFF" style="stroke:#181818;stroke-width:1;"/></g><g><title>Sentence Refiner</title><rect x="1366.148" y="86.297" width="8" height="1150.32" fill="#000" fill-opacity="0"/><line x1="1369.648" y1="86.297" x2="1369.648" y2="1236.617" style="stroke:#181818;stroke-width:0.5;stroke-dasharray:5,5;"/></g><g><title></title><rect x="1364.648" y="977.289" width="10" height="44.266" fill="#FFF" style="stroke:#181818;stroke-width:1;"/></g><g><title>TTS</title><rect x="1463.398" y="86.297" width="8" height="1150.32" fill="#000" fill-opacity="0"/><line x1="1466.898" y1="86.297" x2="1466.898" y2="1236.617" style="stroke:#181818;stroke-width:0.5;stroke-dasharray:5,5;"/></g><g><title></title><rect x="1461.898" y="1065.82" width="10" height="29.133" fill="#FFF" style="stroke:#181818;stroke-width:1;"/></g><text x="10" y="82.995" fill="#000" font-size="14" textLength="49.376">Patient</text><ellipse cx="37.688" cy="18.5" rx="8" ry="8" fill="#E2E2F0" style="stroke:#181818;stroke-width:0.5;"/><path d="M37.688,26.5 L37.688,53.5 M24.688,34.5 L50.688,34.5 M37.688,53.5 L24.688,68.5 M37.688,53.5 L50.688,68.5" style="stroke:#181818;stroke-width:0.5;" fill="none"/><rect x="223.813" y="55" width="77.109" height="30.297" fill="#E2E2F0" style="stroke:#181818;stroke-width:0.5;" rx="2.5" ry="2.5"/><text x="230.813" y="74.995" fill="#000" font-size="14" textLength="63.109">Frontend</text><rect x="434.438" y="55" width="100.96" height="30.297" fill="#E2E2F0" style="stroke:#181818;stroke-width:0.5;" rx="2.5" ry="2.5"/><text x="441.438" y="74.995" fill="#000" font-size="14" textLength="86.96">Backend API</text><rect x="598.557" y="55" width="112.567" height="30.297" fill="#E2E2F0" style="stroke:#181818;stroke-width:0.5;" rx="2.5" ry="2.5"/><text x="605.557" y="74.995" fill="#000" font-size="14" textLength="98.567">Preprocessing</text><rect x="721.124" y="55" width="143.896" height="30.297" fill="#E2E2F0" style="stroke:#181818;stroke-width:0.5;" rx="2.5" ry="2.5"/><text x="728.124" y="74.995" fill="#000" font-size="14" textLength="129.896">Feature Extraction</text><rect x="875.021" y="55" width="84.383" height="30.297" fill="#E2E2F0" style="stroke:#181818;stroke-width:0.5;" rx="2.5" ry="2.5"/><text x="882.021" y="74.995" fill="#000" font-size="14" textLength="70.383">P6 Coarse</text><rect x="969.403" y="55" width="65.229" height="30.297" fill="#E2E2F0" style="stroke:#181818;stroke-width:0.5;" rx="2.5" ry="2.5"/><text x="976.403" y="74.995" fill="#000" font-size="14" textLength="51.229">P6 Fine</text><rect x="1044.632" y="55" width="108.698" height="30.297" fill="#E2E2F0" style="stroke:#181818;stroke-width:0.5;" rx="2.5" ry="2.5"/><text x="1051.632" y="74.995" fill="#000" font-size="14" textLength="94.698">P6 SA-Branch</text><rect x="1163.33" y="55" width="129.063" height="30.297" fill="#E2E2F0" style="stroke:#181818;stroke-width:0.5;" rx="2.5" ry="2.5"/><text x="1170.33" y="74.995" fill="#000" font-size="14" textLength="115.063">Word Assembler</text><rect x="1302.393" y="55" width="134.511" height="30.297" fill="#E2E2F0" style="stroke:#181818;stroke-width:0.5;" rx="2.5" ry="2.5"/><text x="1309.393" y="74.995" fill="#000" font-size="14" textLength="120.511">Sentence Refiner</text><rect x="1446.903" y="55" width="39.99" height="30.297" fill="#E2E2F0" style="stroke:#181818;stroke-width:0.5;" rx="2.5" ry="2.5"/><text x="1453.903" y="74.995" fill="#000" font-size="14" textLength="25.99">TTS</text><text x="10" y="1249.612" fill="#000" font-size="14" textLength="49.376">Patient</text><ellipse cx="37.688" cy="1261.414" rx="8" ry="8" fill="#E2E2F0" style="stroke:#181818;stroke-width:0.5;"/><path d="M37.688,1269.414 L37.688,1296.414 M24.688,1277.414 L50.688,1277.414 M37.688,1296.414 L24.688,1311.414 M37.688,1296.414 L50.688,1311.414" style="stroke:#181818;stroke-width:0.5;" fill="none"/><rect x="223.813" y="1236.617" width="77.109" height="30.297" fill="#E2E2F0" style="stroke:#181818;stroke-width:0.5;" rx="2.5" ry="2.5"/><text x="230.813" y="1256.612" fill="#000" font-size="14" textLength="63.109">Frontend</text><rect x="434.438" y="1236.617" width="100.96" height="30.297" fill="#E2E2F0" style="stroke:#181818;stroke-width:0.5;" rx="2.5" ry="2.5"/><text x="441.438" y="1256.612" fill="#000" font-size="14" textLength="86.96">Backend API</text><rect x="598.557" y="1236.617" width="112.567" height="30.297" fill="#E2E2F0" style="stroke:#181818;stroke-width:0.5;" rx="2.5" ry="2.5"/><text x="605.557" y="1256.612" fill="#000" font-size="14" textLength="98.567">Preprocessing</text><rect x="721.124" y="1236.617" width="143.896" height="30.297" fill="#E2E2F0" style="stroke:#181818;stroke-width:0.5;" rx="2.5" ry="2.5"/><text x="728.124" y="1256.612" fill="#000" font-size="14" textLength="129.896">Feature Extraction</text><rect x="875.021" y="1236.617" width="84.383" height="30.297" fill="#E2E2F0" style="stroke:#181818;stroke-width:0.5;" rx="2.5" ry="2.5"/><text x="882.021" y="1256.612" fill="#000" font-size="14" textLength="70.383">P6 Coarse</text><rect x="969.403" y="1236.617" width="65.229" height="30.297" fill="#E2E2F0" style="stroke:#181818;stroke-width:0.5;" rx="2.5" ry="2.5"/><text x="976.403" y="1256.612" fill="#000" font-size="14" textLength="51.229">P6 Fine</text><rect x="1044.632" y="1236.617" width="108.698" height="30.297" fill="#E2E2F0" style="stroke:#181818;stroke-width:0.5;" rx="2.5" ry="2.5"/><text x="1051.632" y="1256.612" fill="#000" font-size="14" textLength="94.698">P6 SA-Branch</text><rect x="1163.33" y="1236.617" width="129.063" height="30.297" fill="#E2E2F0" style="stroke:#181818;stroke-width:0.5;" rx="2.5" ry="2.5"/><text x="1170.33" y="1256.612" fill="#000" font-size="14" textLength="115.063">Word Assembler</text><rect x="1302.393" y="1236.617" width="134.511" height="30.297" fill="#E2E2F0" style="stroke:#181818;stroke-width:0.5;" rx="2.5" ry="2.5"/><text x="1309.393" y="1256.612" fill="#000" font-size="14" textLength="120.511">Sentence Refiner</text><rect x="1446.903" y="1236.617" width="39.99" height="30.297" fill="#E2E2F0" style="stroke:#181818;stroke-width:0.5;" rx="2.5" ry="2.5"/><text x="1453.903" y="1256.612" fill="#000" font-size="14" textLength="25.99">TTS</text><polygon points="245.367,126.563,255.367,130.563,245.367,134.563,249.367,130.563" fill="#181818" style="stroke:#181818;stroke-width:1;stroke-linejoin:miter;stroke-miterlimit:10;"/><line x1="37.688" y1="130.563" x2="251.367" y2="130.563" style="stroke:#181818;stroke-width:1;"/><text x="44.688" y="110.364" fill="#000" font-size="13" textLength="133.333">1. Imagine Speaking</text><text x="44.688" y="125.497" fill="#000" font-size="13" textLength="88.969">(Click "Start")</text><polygon points="467.918,155.695,477.918,159.695,467.918,163.695,471.918,159.695" fill="#181818" style="stroke:#181818;stroke-width:1;stroke-linejoin:miter;stroke-miterlimit:10;"/><line x1="267.367" y1="159.695" x2="473.918" y2="159.695" style="stroke:#181818;stroke-width:1;"/><text x="274.367" y="154.629" fill="#000" font-size="13" textLength="124.611">2. inference_start()</text><polygon points="637.84,199.961,647.84,203.961,637.84,207.961,641.84,203.961" fill="#181818" style="stroke:#181818;stroke-width:1;stroke-linejoin:miter;stroke-miterlimit:10;"/><line x1="489.918" y1="203.961" x2="643.84" y2="203.961" style="stroke:#181818;stroke-width:1;"/><text x="496.918" y="183.762" fill="#000" font-size="13" textLength="131.365">3. Send EEG Stream</text><text x="496.918" y="198.895" fill="#000" font-size="13" textLength="107.104">(2-3 sec, 256Hz)</text><polygon points="500.918,244.227,490.918,248.227,500.918,252.227,496.918,248.227" fill="#181818" style="stroke:#181818;stroke-width:1;stroke-linejoin:miter;stroke-miterlimit:10;"/><line x1="494.918" y1="248.227" x2="648.84" y2="248.227" style="stroke:#181818;stroke-width:1;stroke-dasharray:2,2;"/><text x="506.918" y="228.028" fill="#000" font-size="13" textLength="93.457">Filtered Signal</text><text x="506.918" y="243.161" fill="#000" font-size="13" textLength="135.922">(Bandpass 0.5-50Hz)</text><polygon points="776.072,273.359,786.072,277.359,776.072,281.359,780.072,277.359" fill="#181818" style="stroke:#181818;stroke-width:1;stroke-linejoin:miter;stroke-miterlimit:10;"/><line x1="489.918" y1="277.359" x2="782.072" y2="277.359" style="stroke:#181818;stroke-width:1;"/><text x="496.918" y="272.293" fill="#000" font-size="13" textLength="172.682">4. Extract Barlow Features</text><polygon points="500.918,317.625,490.918,321.625,500.918,325.625,496.918,321.625" fill="#181818" style="stroke:#181818;stroke-width:1;stroke-linejoin:miter;stroke-miterlimit:10;"/><line x1="494.918" y1="321.625" x2="787.072" y2="321.625" style="stroke:#181818;stroke-width:1;stroke-dasharray:2,2;"/><text x="506.918" y="301.426" fill="#000" font-size="13" textLength="96.688">Feature Vector</text><text x="506.918" y="316.559" fill="#000" font-size="13" textLength="75.067">(~392-dim)</text><polygon points="900.212,361.891,910.212,365.891,900.212,369.891,904.212,365.891" fill="#181818" style="stroke:#181818;stroke-width:1;stroke-linejoin:miter;stroke-miterlimit:10;"/><line x1="489.918" y1="365.891" x2="906.212" y2="365.891" style="stroke:#181818;stroke-width:1;"/><text x="496.918" y="345.692" fill="#000" font-size="13" textLength="149.043">5. Predict Vowel Group</text><text x="496.918" y="360.825" fill="#000" font-size="13" textLength="108.202">(4-class: A/I/E/O)</text><polygon points="500.918,391.023,490.918,395.023,500.918,399.023,496.918,395.023" fill="#181818" style="stroke:#181818;stroke-width:1;stroke-linejoin:miter;stroke-miterlimit:10;"/><line x1="494.918" y1="395.023" x2="911.212" y2="395.023" style="stroke:#181818;stroke-width:1;stroke-dasharray:2,2;"/><text x="506.918" y="389.958" fill="#000" font-size="13" textLength="152.312">Vowel Group Prediction</text><path d="M399.438,407.023 L463.881,407.023 L463.881,414.156 L453.881,424.156 L399.438,424.156 L399.438,407.023" style="stroke:#000;stroke-width:1.5;" fill="#EEE"/><rect x="399.438" y="407.023" width="794.892" height="431.469" fill="none" style="stroke:#000;stroke-width:1.5;"/><text x="414.438" y="420.09" fill="#000" font-size="13" textLength="19.443" font-weight="700">alt</text><text x="478.881" y="419.234" fill="#000" font-size="11" textLength="73.745" font-weight="700">[Vowel = O]</text><line x1="399.438" y1="495.422" x2="1194.33" y2="495.422" style="stroke:#000;stroke-width:1;stroke-dasharray:2,2;"/><text x="404.438" y="507.632" fill="#000" font-size="11" textLength="125.796" font-weight="700">[Vowel = A or I or E]</text><path d="M443.582,439.156 L443.582,479.156 L957.582,479.156 L957.582,449.156 L947.582,439.156 L443.582,439.156" style="stroke:#181818;stroke-width:0.5;" fill="#FEFFDD"/><path d="M947.582,439.156 L947.582,449.156 L957.582,449.156 L947.582,439.156" style="stroke:#181818;stroke-width:0.5;" fill="#FEFFDD"/><text x="645.431" y="456.223" fill="#000" font-size="13" textLength="92.803">BO vowel only</text><text x="645.431" y="471.356" fill="#000" font-size="13" textLength="102.267">Skip Fine Model</text><polygon points="985.018,547.492,995.018,551.492,985.018,555.492,989.018,551.492" fill="#181818" style="stroke:#181818;stroke-width:1;stroke-linejoin:miter;stroke-miterlimit:10;"/><line x1="489.918" y1="551.492" x2="991.018" y2="551.492" style="stroke:#181818;stroke-width:1;"/><text x="496.918" y="531.293" fill="#000" font-size="13" textLength="107.269">6. P6 Fine Model</text><text x="496.918" y="546.426" fill="#000" font-size="13" textLength="131.193">(3-class conditional)</text><polygon points="500.918,576.625,490.918,580.625,500.918,584.625,496.918,580.625" fill="#181818" style="stroke:#181818;stroke-width:1;stroke-linejoin:miter;stroke-miterlimit:10;"/><line x1="494.918" y1="580.625" x2="996.018" y2="580.625" style="stroke:#181818;stroke-width:1;stroke-dasharray:2,2;"/><text x="506.918" y="575.559" fill="#000" font-size="13" textLength="153.22">First-Syllable Prediction</text><path d="M418.438,592.625 L482.881,592.625 L482.881,599.758 L472.881,609.758 L418.438,609.758 L418.438,592.625" style="stroke:#000;stroke-width:1.5;" fill="#EEE"/><rect x="418.438" y="592.625" width="750.892" height="231.867" fill="none" style="stroke:#000;stroke-width:1.5;"/><text x="433.438" y="605.692" fill="#000" font-size="13" textLength="19.443" font-weight="700">alt</text><text x="497.881" y="604.835" fill="#000" font-size="11" textLength="125.608" font-weight="700">[First-Syllable = SA]</text><line x1="418.438" y1="754.422" x2="1169.33" y2="754.422" style="stroke:#000;stroke-width:1;stroke-dasharray:2,2;"/><text x="423.438" y="766.632" fill="#000" font-size="11" textLength="125.608" font-weight="700">[First-Syllable ≠ SA]</text><polygon points="1081.981,652.023,1091.981,656.023,1081.981,660.023,1085.981,656.023" fill="#181818" style="stroke:#181818;stroke-width:1;stroke-linejoin:miter;stroke-miterlimit:10;"/><line x1="489.918" y1="656.023" x2="1087.981" y2="656.023" style="stroke:#181818;stroke-width:1;"/><text x="496.918" y="635.825" fill="#000" font-size="13" textLength="104.47">7. P6 SA-Branch</text><text x="496.918" y="650.958" fill="#000" font-size="13" textLength="140.093">(Binary: KIT vs YANG)</text><polygon points="500.918,681.156,490.918,685.156,500.918,689.156,496.918,685.156" fill="#181818" style="stroke:#181818;stroke-width:1;stroke-linejoin:miter;stroke-miterlimit:10;"/><line x1="494.918" y1="685.156" x2="1092.981" y2="685.156" style="stroke:#181818;stroke-width:1;stroke-dasharray:2,2;"/><text x="506.918" y="680.09" fill="#000" font-size="13" textLength="172.758">Second-Syllable Prediction</text><path d="M437.503,698.156 L437.503,738.156 L1145.503,738.156 L1145.503,708.156 L1135.503,698.156 L437.503,698.156" style="stroke:#181818;stroke-width:0.5;" fill="#FEFFDD"/><path d="M1135.503,698.156 L1135.503,708.156 L1145.503,708.156 L1135.503,698.156" style="stroke:#181818;stroke-width:0.5;" fill="#FEFFDD"/><text x="715.838" y="715.223" fill="#000" font-size="13" textLength="143.222">Full word determined:</text><text x="715.838" y="730.356" fill="#000" font-size="13" textLength="107.758">SA + [KIT|YANG]</text><path d="M448.371,779.227 L448.371,819.227 L1038.371,819.227 L1038.371,789.227 L1028.371,779.227 L448.371,779.227" style="stroke:#181818;stroke-width:0.5;" fill="#FEFFDD"/><path d="M1028.371,779.227 L1028.371,789.227 L1038.371,789.227 L1028.371,779.227" style="stroke:#181818;stroke-width:0.5;" fill="#FEFFDD"/><text x="650.427" y="796.293" fill="#000" font-size="13" textLength="135.478">First-syllable already</text><text x="650.427" y="811.426" fill="#000" font-size="13" textLength="177.081">determined (no SA-branch)</text><polygon points="1210.861,884.758,1220.861,888.758,1210.861,892.758,1214.861,888.758" fill="#181818" style="stroke:#181818;stroke-width:1;stroke-linejoin:miter;stroke-miterlimit:10;"/><line x1="489.918" y1="888.758" x2="1216.861" y2="888.758" style="stroke:#181818;stroke-width:1;"/><text x="496.918" y="868.559" fill="#000" font-size="13" textLength="123.379">8. Word Assembler</text><text x="496.918" y="883.692" fill="#000" font-size="13" textLength="227.875">(Syllable predictions + confidence)</text><polygon points="500.918,929.023,490.918,933.023,500.918,937.023,496.918,933.023" fill="#181818" style="stroke:#181818;stroke-width:1;stroke-linejoin:miter;stroke-miterlimit:10;"/><line x1="494.918" y1="933.023" x2="1221.861" y2="933.023" style="stroke:#181818;stroke-width:1;stroke-dasharray:2,2;"/><text x="506.918" y="912.825" fill="#000" font-size="13" textLength="81.136">Target Word</text><text x="506.918" y="927.958" fill="#000" font-size="13" textLength="105.06">(from 10-vocab)</text><polygon points="1352.648,973.289,1362.648,977.289,1352.648,981.289,1356.648,977.289" fill="#181818" style="stroke:#181818;stroke-width:1;stroke-linejoin:miter;stroke-miterlimit:10;"/><line x1="489.918" y1="977.289" x2="1358.648" y2="977.289" style="stroke:#181818;stroke-width:1;"/><text x="496.918" y="957.09" fill="#000" font-size="13" textLength="128.438">9. Sentence Refiner</text><text x="496.918" y="972.223" fill="#000" font-size="13" textLength="152.007">(Rule-based dictionary)</text><polygon points="500.918,1017.555,490.918,1021.555,500.918,1025.555,496.918,1021.555" fill="#181818" style="stroke:#181818;stroke-width:1;stroke-linejoin:miter;stroke-miterlimit:10;"/><line x1="494.918" y1="1021.555" x2="1363.648" y2="1021.555" style="stroke:#181818;stroke-width:1;stroke-dasharray:2,2;"/><text x="506.918" y="1001.356" fill="#000" font-size="13" textLength="114.81">Refined Sentence</text><text x="506.918" y="1016.489" fill="#000" font-size="13" textLength="146.015">(e.g., "I am hungry...")</text><polygon points="1449.898,1061.82,1459.898,1065.82,1449.898,1069.82,1453.898,1065.82" fill="#181818" style="stroke:#181818;stroke-width:1;stroke-linejoin:miter;stroke-miterlimit:10;"/><line x1="489.918" y1="1065.82" x2="1455.898" y2="1065.82" style="stroke:#181818;stroke-width:1;"/><text x="496.918" y="1045.622" fill="#000" font-size="13" textLength="115.75">10. TTS Synthesis</text><text x="496.918" y="1060.754" fill="#000" font-size="13" textLength="109.192">(Text-to-Speech)</text><polygon points="500.918,1090.953,490.918,1094.953,500.918,1098.953,496.918,1094.953" fill="#181818" style="stroke:#181818;stroke-width:1;stroke-linejoin:miter;stroke-miterlimit:10;"/><line x1="494.918" y1="1094.953" x2="1460.898" y2="1094.953" style="stroke:#181818;stroke-width:1;stroke-dasharray:2,2;"/><text x="506.918" y="1089.887" fill="#000" font-size="13" textLength="136.703">Audio Stream + Path</text><polygon points="278.367,1150.352,268.367,1154.352,278.367,1158.352,274.367,1154.352" fill="#181818" style="stroke:#181818;stroke-width:1;stroke-linejoin:miter;stroke-miterlimit:10;"/><line x1="272.367" y1="1154.352" x2="478.918" y2="1154.352" style="stroke:#181818;stroke-width:1;stroke-dasharray:2,2;"/><text x="284.367" y="1119.02" fill="#000" font-size="13" textLength="172.085">11. Return JSON Response</text><text x="284.367" y="1134.153" fill="#000" font-size="13" textLength="148.123">{syllables, confidence,</text><text x="284.367" y="1149.286" fill="#000" font-size="13" textLength="188.551">word, sentence, audio_path}</text><polygon points="48.688,1194.617,38.688,1198.617,48.688,1202.617,44.688,1198.617" fill="#181818" style="stroke:#181818;stroke-width:1;stroke-linejoin:miter;stroke-miterlimit:10;"/><line x1="42.688" y1="1198.617" x2="256.367" y2="1198.617" style="stroke:#181818;stroke-width:1;"/><text x="54.688" y="1178.418" fill="#000" font-size="13" textLength="149.887">12. Display + Playback</text><text x="54.688" y="1193.551" fill="#000" font-size="13" textLength="195.679">(Show sentence + play audio)</text><path d="M18.846,1211.617 L18.846,1221.617 L1484.846,1221.617 L1484.846,1221.617 L1474.846,1211.617 L18.846,1211.617" style="stroke:#181818;stroke-width:0.5;" fill="#FEFFDD"/><path d="M1474.846,1211.617 L1474.846,1221.617 L1484.846,1221.617 L1474.846,1211.617" style="stroke:#181818;stroke-width:0.5;" fill="#FEFFDD"/><?plantuml-src TLNRRXit47tVhnZeoKQrQyUEtMQ155YdagiMYGslaAA8Wu3QfIN25BaWAJbAB-_zYtvRlwGpt8j8nT63D29dpfovS8PLJXkuPKvmvPA66ISgqJ3bO6gqSbpLqU7eYbMFU0Z5xMm4p4BtFrAwDRmnkkBM2hMCpQUSkOtXCFdi3AkSqCgZTCSsLhwzX3UQ6SkzJYj-fJ4LghqduQlRiaYl35FLogkKHQpmcpOOYRLylP3SU9NXNwnPSif5nU6EFw2VLhUJ8ytvl4oIBfsG_ZXaCOSN6SpMR8aMK3QSFM9kxjNH6ocgHyHtY34wJYWdM-RuFlj9Bn5Qb-qSpZ8Gwe4RulJ9al5HODmN9UchXQPHKN8upw2acyda6afdE5iZcRFq72olnd1sSVdpbm0mhcWI_OKq93OLqY6j6agnL4mYw1LJTSEiXTFi8hqu9ToQVmiv8DptH0ulixvVq8-H-cdVB_jyzIT9BntmwXhlFQU6Hrf_dxywIsknZjZiKG8YRUFbS94HsreWZVVwYKkuDdhJ8DJBj98OO0x5oUnaSd8J9AvhsgJzZIa583qmleUGJc_DPE_oDTmaW1-byLflkUdXnWFDgnlOUbsjvEvUbO-YyMy3tkgQouHBvD635O2FVqPV4myRfXzDShZ4c2y3Supsl8qMAgrgGOoPFFR6-opIIwGJ_-MD3th4M9UMEoaPlhGmTj8Fon41KHOEJ5_JauRk4v0lYno-zzI70K2TA1Gpknn-dSrXQ-7tujtryM0zE0qG1w4iuWXAJj5_CuI3C9v3VAQ0H7gwaHAUQ2pL7D_H6XDGvrZ40hw33yZxJoBzqQFuGXxauxz__WszFUEaBMjhPdip9d40rDWiUwTmf3GbR-6JrwQ9HihXM1dcPGu_P10FL4pvmAmPCcGn5CpUWwXfU0LlPJzwaq6CqpvdPicTzuBO3qQluSLfkjKLMqJFE40Ag7RZEeTNVlP5ynpXxZQIfmjcCVQEAJPBGA-VzaadnDJQmte0Ha2UBRCnZ6R0rh3QgANPPLasYeWEc05Dt22uB4up4g3SARVYLbZ4c_FFBdKwnUt1gIG3Yjyvf1qnAZQrqDrinvJZJbg5hhtHu3RULBYgxZWEGWM_b3VlKBODrWrZ-gDl6JiEQZY-LzIoOzmTRV1ZOEJyKuC-_mgT3eifN6hTjaI_kDL-4hQHR4U4yMU1-jH5AvpvFJXUUGtl8fxUmyxSDtu7FcxZ9Ozqzpy0?></g></svg>